<?xml version="1.0" standalone="no"?>
<!DOCTYPE svg PUBLIC "-//W3C//DTD SVG 20010904//EN"
 "http://www.w3.org/TR/2001/REC-SVG-20010904/DTD/svg10.dtd">
<svg version="1.0" xmlns="http://www.w3.org/2000/svg"
 width="529.000000pt" height="529.000000pt" viewBox="0 0 529.000000 529.000000"
 preserveAspectRatio="xMidYMid meet">

<g transform="translate(0.000000,529.000000) scale(0.100000,-0.100000)"
fill="#000000" stroke="none">
<path d="M3273 4404 c-13 -3 -23 -9 -23 -12 0 -4 -15 -15 -32 -25 -43 -23 -94
-92 -120 -159 -28 -74 -36 -257 -14 -356 32 -151 123 -288 227 -343 58 -31
169 -33 214 -5 50 32 106 89 126 128 46 89 54 129 53 263 0 72 -3 139 -5 150
-15 62 -36 116 -64 160 -17 28 -32 54 -32 58 -2 12 -93 99 -128 121 -30 20
-150 31 -202 20z"/>
<path d="M2240 4280 c-105 -36 -160 -135 -160 -289 0 -100 18 -169 73 -276 52
-102 151 -204 234 -242 153 -70 298 -10 347 145 16 53 16 213 -1 273 -15 53
-55 139 -65 139 -4 0 -8 7 -8 16 0 30 -136 182 -164 184 -5 0 -14 7 -20 15
-10 13 -100 43 -156 51 -14 2 -50 -5 -80 -16z"/>
<path d="M1393 3599 c-24 -11 -43 -24 -43 -30 0 -6 -4 -8 -9 -5 -24 15 -81
-108 -81 -175 0 -41 26 -122 61 -189 13 -25 58 -79 99 -120 122 -122 277 -188
419 -178 154 11 243 116 228 267 -4 31 -13 71 -22 87 -8 16 -15 34 -15 41 0
29 -140 192 -167 195 -4 0 -14 9 -21 19 -7 11 -18 19 -24 19 -5 0 -23 9 -39
21 -16 11 -60 31 -99 45 -92 32 -223 33 -287 3z"/>
<path d="M3048 3261 c-42 -9 -80 -19 -84 -23 -4 -5 -17 -8 -28 -8 -12 -1 -39
-9 -61 -20 -22 -11 -45 -19 -50 -20 -6 0 -34 -16 -64 -35 -29 -19 -56 -35 -60
-35 -11 0 -171 -150 -171 -160 0 -4 -16 -25 -35 -46 -19 -21 -35 -46 -35 -56
0 -10 -3 -18 -8 -18 -9 0 -34 -47 -60 -115 -79 -199 -83 -254 -82 -1030 1
-453 5 -672 13 -699 23 -81 112 -135 200 -122 71 11 137 65 154 126 4 14 10
356 13 760 6 797 3 758 65 881 114 226 412 335 653 238 80 -32 108 -51 172
-113 122 -120 184 -338 146 -515 -33 -157 -116 -263 -271 -345 -74 -40 -114
-47 -295 -54 -153 -7 -167 -9 -197 -31 -45 -34 -68 -85 -67 -151 0 -75 31
-122 104 -158 52 -26 62 -27 200 -27 191 0 278 22 455 112 155 79 296 225 369
384 64 138 96 344 75 479 -5 36 -11 74 -12 85 -32 216 -180 454 -358 573 -75
50 -196 111 -234 117 -5 0 -17 4 -25 7 -8 3 -53 13 -100 22 -105 20 -221 19
-322 -3z"/>
<path d="M1405 2620 c-3 -5 -14 -10 -24 -10 -42 0 -120 -51 -155 -103 -33 -47
-36 -58 -36 -121 0 -57 5 -78 32 -128 99 -186 401 -317 607 -263 89 23 133 47
174 96 85 98 67 234 -47 357 -60 65 -194 140 -297 166 -72 18 -244 22 -254 6z"/>
</g>
</svg>
